<mxfile host="app.diagrams.net" agent="Mozilla/5.0 (Windows NT 10.0; Win64; x64) AppleWebKit/537.36 (KHTML, like Gecko) Chrome/135.0.0.0 Safari/537.36" version="26.2.14">
  <diagram name="PÃ¡gina-1" id="ORwGxPDwjp6IGSSWLkPu">
    <mxGraphModel dx="1042" dy="570" grid="1" gridSize="10" guides="1" tooltips="1" connect="1" arrows="1" fold="1" page="1" pageScale="1" pageWidth="827" pageHeight="1169" math="0" shadow="0">
      <root>
        <mxCell id="0" />
        <mxCell id="1" parent="0" />
        <mxCell id="d-qR0EGC7ATznKxFdN1T-3" value="id" style="ellipse;whiteSpace=wrap;html=1;align=center;fontStyle=4;" vertex="1" parent="1">
          <mxGeometry x="120" y="140" width="20" height="20" as="geometry" />
        </mxCell>
        <mxCell id="d-qR0EGC7ATznKxFdN1T-4" value="nome" style="ellipse;whiteSpace=wrap;html=1;align=center;" vertex="1" parent="1">
          <mxGeometry x="130" y="105" width="40" height="20" as="geometry" />
        </mxCell>
        <mxCell id="d-qR0EGC7ATznKxFdN1T-5" value="cnpj" style="ellipse;whiteSpace=wrap;html=1;align=center;" vertex="1" parent="1">
          <mxGeometry x="190" y="110" width="30" height="20" as="geometry" />
        </mxCell>
        <mxCell id="d-qR0EGC7ATznKxFdN1T-6" value="email" style="ellipse;whiteSpace=wrap;html=1;align=center;" vertex="1" parent="1">
          <mxGeometry x="160" y="150" width="40" height="20" as="geometry" />
        </mxCell>
        <mxCell id="d-qR0EGC7ATznKxFdN1T-7" value="Produto" style="whiteSpace=wrap;html=1;align=center;" vertex="1" parent="1">
          <mxGeometry x="150" y="260" width="50" height="20" as="geometry" />
        </mxCell>
        <mxCell id="d-qR0EGC7ATznKxFdN1T-8" value="Empresa" style="whiteSpace=wrap;html=1;align=center;" vertex="1" parent="1">
          <mxGeometry x="140" y="125" width="50" height="20" as="geometry" />
        </mxCell>
        <mxCell id="d-qR0EGC7ATznKxFdN1T-9" value="id" style="ellipse;whiteSpace=wrap;html=1;align=center;fontStyle=4;" vertex="1" parent="1">
          <mxGeometry x="125" y="260" width="20" height="20" as="geometry" />
        </mxCell>
        <mxCell id="d-qR0EGC7ATznKxFdN1T-10" value="nome" style="ellipse;whiteSpace=wrap;html=1;align=center;" vertex="1" parent="1">
          <mxGeometry x="120" y="240" width="40" height="20" as="geometry" />
        </mxCell>
        <mxCell id="d-qR0EGC7ATznKxFdN1T-11" value="preco" style="ellipse;whiteSpace=wrap;html=1;align=center;" vertex="1" parent="1">
          <mxGeometry x="170" y="240" width="40" height="20" as="geometry" />
        </mxCell>
        <mxCell id="d-qR0EGC7ATznKxFdN1T-13" value="quantidade" style="ellipse;whiteSpace=wrap;html=1;align=center;" vertex="1" parent="1">
          <mxGeometry x="200" y="260" width="70" height="20" as="geometry" />
        </mxCell>
        <mxCell id="d-qR0EGC7ATznKxFdN1T-14" value="&lt;span style=&quot;border-bottom: 1px dotted&quot;&gt;id_supermercado&lt;/span&gt;" style="ellipse;whiteSpace=wrap;html=1;align=center;" vertex="1" parent="1">
          <mxGeometry x="130" y="280" width="100" height="30" as="geometry" />
        </mxCell>
        <mxCell id="d-qR0EGC7ATznKxFdN1T-15" value="TipoEmprego" style="whiteSpace=wrap;html=1;align=center;" vertex="1" parent="1">
          <mxGeometry x="85" y="380" width="70" height="20" as="geometry" />
        </mxCell>
        <mxCell id="d-qR0EGC7ATznKxFdN1T-16" value="id" style="ellipse;whiteSpace=wrap;html=1;align=center;fontStyle=4;" vertex="1" parent="1">
          <mxGeometry x="65" y="380" width="20" height="20" as="geometry" />
        </mxCell>
        <mxCell id="d-qR0EGC7ATznKxFdN1T-17" value="nome" style="ellipse;whiteSpace=wrap;html=1;align=center;" vertex="1" parent="1">
          <mxGeometry x="86.88" y="400" width="40" height="20" as="geometry" />
        </mxCell>
        <mxCell id="d-qR0EGC7ATznKxFdN1T-18" value="cpf" style="ellipse;whiteSpace=wrap;html=1;align=center;" vertex="1" parent="1">
          <mxGeometry x="113.75" y="490" width="30" height="20" as="geometry" />
        </mxCell>
        <mxCell id="d-qR0EGC7ATznKxFdN1T-19" value="telefone" style="ellipse;whiteSpace=wrap;html=1;align=center;" vertex="1" parent="1">
          <mxGeometry x="158.75" y="460" width="70" height="20" as="geometry" />
        </mxCell>
        <mxCell id="d-qR0EGC7ATznKxFdN1T-20" value="&lt;span style=&quot;border-bottom: 1px dotted&quot;&gt;id_empresa&lt;/span&gt;" style="ellipse;whiteSpace=wrap;html=1;align=center;" vertex="1" parent="1">
          <mxGeometry x="148.75" y="485" width="65" height="30" as="geometry" />
        </mxCell>
        <mxCell id="d-qR0EGC7ATznKxFdN1T-21" value="&lt;span style=&quot;border-bottom: 1px dotted&quot;&gt;id_tipo_empregado&lt;/span&gt;" style="ellipse;whiteSpace=wrap;html=1;align=center;" vertex="1" parent="1">
          <mxGeometry x="65" y="440" width="113.75" height="30" as="geometry" />
        </mxCell>
        <mxCell id="d-qR0EGC7ATznKxFdN1T-22" value="Funcionario" style="whiteSpace=wrap;html=1;align=center;" vertex="1" parent="1">
          <mxGeometry x="88.75" y="470" width="70" height="20" as="geometry" />
        </mxCell>
        <mxCell id="d-qR0EGC7ATznKxFdN1T-23" value="id" style="ellipse;whiteSpace=wrap;html=1;align=center;fontStyle=4;" vertex="1" parent="1">
          <mxGeometry x="66.88" y="470" width="20" height="20" as="geometry" />
        </mxCell>
        <mxCell id="d-qR0EGC7ATznKxFdN1T-24" value="cpf" style="ellipse;whiteSpace=wrap;html=1;align=center;" vertex="1" parent="1">
          <mxGeometry x="78.75" y="490" width="30" height="20" as="geometry" />
        </mxCell>
        <mxCell id="d-qR0EGC7ATznKxFdN1T-25" value="salario" style="ellipse;whiteSpace=wrap;html=1;align=center;" vertex="1" parent="1">
          <mxGeometry x="130" y="400" width="40" height="20" as="geometry" />
        </mxCell>
        <mxCell id="d-qR0EGC7ATznKxFdN1T-26" value="carga_horaria" style="ellipse;whiteSpace=wrap;html=1;align=center;" vertex="1" parent="1">
          <mxGeometry x="85" y="360" width="80" height="20" as="geometry" />
        </mxCell>
        <mxCell id="d-qR0EGC7ATznKxFdN1T-27" value="descricao" style="ellipse;whiteSpace=wrap;html=1;align=center;" vertex="1" parent="1">
          <mxGeometry x="160" y="380" width="55" height="20" as="geometry" />
        </mxCell>
        <mxCell id="d-qR0EGC7ATznKxFdN1T-29" value="cpf" style="ellipse;whiteSpace=wrap;html=1;align=center;" vertex="1" parent="1">
          <mxGeometry x="148.75" y="595" width="30" height="20" as="geometry" />
        </mxCell>
        <mxCell id="d-qR0EGC7ATznKxFdN1T-30" value="telefone" style="ellipse;whiteSpace=wrap;html=1;align=center;" vertex="1" parent="1">
          <mxGeometry x="94.69" y="565" width="49.06" height="20" as="geometry" />
        </mxCell>
        <mxCell id="d-qR0EGC7ATznKxFdN1T-32" value="Cliente" style="whiteSpace=wrap;html=1;align=center;" vertex="1" parent="1">
          <mxGeometry x="106.88" y="585" width="39.06" height="20" as="geometry" />
        </mxCell>
        <mxCell id="d-qR0EGC7ATznKxFdN1T-33" value="id" style="ellipse;whiteSpace=wrap;html=1;align=center;fontStyle=4;" vertex="1" parent="1">
          <mxGeometry x="80" y="585" width="20" height="20" as="geometry" />
        </mxCell>
        <mxCell id="d-qR0EGC7ATznKxFdN1T-34" value="nome" style="ellipse;whiteSpace=wrap;html=1;align=center;" vertex="1" parent="1">
          <mxGeometry x="100" y="605" width="40" height="20" as="geometry" />
        </mxCell>
        <mxCell id="d-qR0EGC7ATznKxFdN1T-35" value="email" style="ellipse;whiteSpace=wrap;html=1;align=center;" vertex="1" parent="1">
          <mxGeometry x="148.75" y="575" width="41.25" height="20" as="geometry" />
        </mxCell>
        <mxCell id="d-qR0EGC7ATznKxFdN1T-37" value="cep" style="ellipse;whiteSpace=wrap;html=1;align=center;" vertex="1" parent="1">
          <mxGeometry x="172.5" y="700" width="30" height="20" as="geometry" />
        </mxCell>
        <mxCell id="d-qR0EGC7ATznKxFdN1T-38" value="logradouro" style="ellipse;whiteSpace=wrap;html=1;align=center;" vertex="1" parent="1">
          <mxGeometry x="35" y="680" width="69.06" height="20" as="geometry" />
        </mxCell>
        <mxCell id="d-qR0EGC7ATznKxFdN1T-39" value="Endereco" style="whiteSpace=wrap;html=1;align=center;" vertex="1" parent="1">
          <mxGeometry x="91.1" y="700" width="58.9" height="20" as="geometry" />
        </mxCell>
        <mxCell id="d-qR0EGC7ATznKxFdN1T-40" value="id" style="ellipse;whiteSpace=wrap;html=1;align=center;fontStyle=4;" vertex="1" parent="1">
          <mxGeometry x="64.22" y="700" width="20" height="20" as="geometry" />
        </mxCell>
        <mxCell id="d-qR0EGC7ATznKxFdN1T-41" value="complemento" style="ellipse;whiteSpace=wrap;html=1;align=center;" vertex="1" parent="1">
          <mxGeometry x="156.1" y="680" width="75.31" height="20" as="geometry" />
        </mxCell>
        <mxCell id="d-qR0EGC7ATznKxFdN1T-42" value="numero" style="ellipse;whiteSpace=wrap;html=1;align=center;" vertex="1" parent="1">
          <mxGeometry x="103.75" y="680" width="51.25" height="20" as="geometry" />
        </mxCell>
        <mxCell id="d-qR0EGC7ATznKxFdN1T-43" value="bairro" style="ellipse;whiteSpace=wrap;html=1;align=center;" vertex="1" parent="1">
          <mxGeometry x="88.75" y="660" width="36.25" height="20" as="geometry" />
        </mxCell>
        <mxCell id="d-qR0EGC7ATznKxFdN1T-44" value="&lt;span style=&quot;border-bottom: 1px dotted&quot;&gt;id_empresa&lt;/span&gt;" style="ellipse;whiteSpace=wrap;html=1;align=center;dashed=1;" vertex="1" parent="1">
          <mxGeometry x="34.99999999999999" y="720" width="65" height="30" as="geometry" />
        </mxCell>
        <mxCell id="d-qR0EGC7ATznKxFdN1T-45" value="&lt;span style=&quot;border-bottom: 1px dotted&quot;&gt;id_cliente&lt;/span&gt;" style="ellipse;whiteSpace=wrap;html=1;align=center;dashed=1;" vertex="1" parent="1">
          <mxGeometry x="66.88" y="750" width="65" height="30" as="geometry" />
        </mxCell>
        <mxCell id="d-qR0EGC7ATznKxFdN1T-46" value="&lt;span style=&quot;border-bottom: 1px dotted&quot;&gt;id_funcionario&lt;/span&gt;" style="ellipse;whiteSpace=wrap;html=1;align=center;dashed=1;" vertex="1" parent="1">
          <mxGeometry x="106.88" y="720" width="80" height="30" as="geometry" />
        </mxCell>
        <mxCell id="d-qR0EGC7ATznKxFdN1T-48" value="data_pedido" style="ellipse;whiteSpace=wrap;html=1;align=center;" vertex="1" parent="1">
          <mxGeometry x="82.66" y="810" width="82.18" height="20" as="geometry" />
        </mxCell>
        <mxCell id="d-qR0EGC7ATznKxFdN1T-49" value="Pedido" style="whiteSpace=wrap;html=1;align=center;" vertex="1" parent="1">
          <mxGeometry x="106.88" y="840" width="39.06" height="20" as="geometry" />
        </mxCell>
        <mxCell id="d-qR0EGC7ATznKxFdN1T-50" value="id" style="ellipse;whiteSpace=wrap;html=1;align=center;fontStyle=4;" vertex="1" parent="1">
          <mxGeometry x="80" y="840" width="20" height="20" as="geometry" />
        </mxCell>
        <mxCell id="d-qR0EGC7ATznKxFdN1T-52" value="valor" style="ellipse;whiteSpace=wrap;html=1;align=center;" vertex="1" parent="1">
          <mxGeometry x="150" y="840" width="41.25" height="20" as="geometry" />
        </mxCell>
        <mxCell id="d-qR0EGC7ATznKxFdN1T-53" value="&lt;span style=&quot;border-bottom: 1px dotted&quot;&gt;id_cliente&lt;/span&gt;" style="ellipse;whiteSpace=wrap;html=1;align=center;" vertex="1" parent="1">
          <mxGeometry x="92.5" y="870" width="65" height="30" as="geometry" />
        </mxCell>
        <mxCell id="d-qR0EGC7ATznKxFdN1T-55" value="quantidade" style="ellipse;whiteSpace=wrap;html=1;align=center;" vertex="1" parent="1">
          <mxGeometry x="155.00000000000003" y="945" width="64.21" height="20" as="geometry" />
        </mxCell>
        <mxCell id="d-qR0EGC7ATznKxFdN1T-56" value="ItensPedido" style="whiteSpace=wrap;html=1;align=center;" vertex="1" parent="1">
          <mxGeometry x="100.01" y="970" width="69.99" height="20" as="geometry" />
        </mxCell>
        <mxCell id="d-qR0EGC7ATznKxFdN1T-57" value="id" style="ellipse;whiteSpace=wrap;html=1;align=center;fontStyle=4;" vertex="1" parent="1">
          <mxGeometry x="73.13" y="970" width="20" height="20" as="geometry" />
        </mxCell>
        <mxCell id="d-qR0EGC7ATznKxFdN1T-58" value="valor" style="ellipse;whiteSpace=wrap;html=1;align=center;" vertex="1" parent="1">
          <mxGeometry x="176.88" y="970" width="33.12" height="20" as="geometry" />
        </mxCell>
        <mxCell id="d-qR0EGC7ATznKxFdN1T-59" value="&lt;span style=&quot;border-bottom: 1px dotted&quot;&gt;id_cliente&lt;/span&gt;" style="ellipse;whiteSpace=wrap;html=1;align=center;" vertex="1" parent="1">
          <mxGeometry x="100.00999999999999" y="990" width="65" height="20" as="geometry" />
        </mxCell>
        <mxCell id="d-qR0EGC7ATznKxFdN1T-61" value="&lt;span style=&quot;border-bottom: 1px dotted&quot;&gt;id_pedido&lt;/span&gt;" style="ellipse;whiteSpace=wrap;html=1;align=center;" vertex="1" parent="1">
          <mxGeometry x="83.75" y="942.5" width="65" height="25" as="geometry" />
        </mxCell>
        <mxCell id="d-qR0EGC7ATznKxFdN1T-62" value="Pagamento" style="whiteSpace=wrap;html=1;align=center;" vertex="1" parent="1">
          <mxGeometry x="390" y="900" width="69.99" height="20" as="geometry" />
        </mxCell>
        <mxCell id="d-qR0EGC7ATznKxFdN1T-63" value="&lt;span style=&quot;border-bottom: 1px dotted&quot;&gt;id_pedido&lt;/span&gt;" style="ellipse;whiteSpace=wrap;html=1;align=center;" vertex="1" parent="1">
          <mxGeometry x="392.5" y="870" width="65" height="25" as="geometry" />
        </mxCell>
        <mxCell id="d-qR0EGC7ATznKxFdN1T-64" value="id" style="ellipse;whiteSpace=wrap;html=1;align=center;fontStyle=4;" vertex="1" parent="1">
          <mxGeometry x="370" y="900" width="20" height="20" as="geometry" />
        </mxCell>
        <mxCell id="d-qR0EGC7ATznKxFdN1T-65" value="data_pagamento" style="ellipse;whiteSpace=wrap;html=1;align=center;" vertex="1" parent="1">
          <mxGeometry x="370" y="925" width="100" height="20" as="geometry" />
        </mxCell>
        <mxCell id="d-qR0EGC7ATznKxFdN1T-66" value="tipo" style="ellipse;whiteSpace=wrap;html=1;align=center;" vertex="1" parent="1">
          <mxGeometry x="470" y="900" width="30" height="20" as="geometry" />
        </mxCell>
        <mxCell id="d-qR0EGC7ATznKxFdN1T-69" value="tipo" style="swimlane;fontStyle=0;childLayout=stackLayout;horizontal=1;startSize=26;horizontalStack=0;resizeParent=1;resizeParentMax=0;resizeLast=0;collapsible=1;marginBottom=0;align=center;fontSize=14;" vertex="1" parent="1">
          <mxGeometry x="510" y="865" width="80" height="90" as="geometry">
            <mxRectangle x="520" y="865" width="60" height="30" as="alternateBounds" />
          </mxGeometry>
        </mxCell>
        <mxCell id="d-qR0EGC7ATznKxFdN1T-70" value="Pix&lt;div&gt;Dinheiro&lt;/div&gt;&lt;div&gt;DÃ©bito&lt;/div&gt;&lt;div&gt;CrÃ©dito&lt;/div&gt;" style="text;strokeColor=none;fillColor=none;spacingLeft=4;spacingRight=4;overflow=hidden;rotatable=0;points=[[0,0.5],[1,0.5]];portConstraint=eastwest;fontSize=12;whiteSpace=wrap;html=1;" vertex="1" parent="d-qR0EGC7ATznKxFdN1T-69">
          <mxGeometry y="26" width="80" height="64" as="geometry" />
        </mxCell>
        <mxCell id="d-qR0EGC7ATznKxFdN1T-73" value="Avaliacao" style="whiteSpace=wrap;html=1;align=center;" vertex="1" parent="1">
          <mxGeometry x="440" y="680" width="100" height="40" as="geometry" />
        </mxCell>
        <mxCell id="d-qR0EGC7ATznKxFdN1T-74" value="&lt;span style=&quot;border-bottom: 1px dotted&quot;&gt;id_produto&lt;/span&gt;" style="ellipse;whiteSpace=wrap;html=1;align=center;" vertex="1" parent="1">
          <mxGeometry x="440" y="640" width="65" height="30" as="geometry" />
        </mxCell>
        <mxCell id="d-qR0EGC7ATznKxFdN1T-75" value="&lt;span style=&quot;border-bottom: 1px dotted&quot;&gt;id_cliente&lt;/span&gt;" style="ellipse;whiteSpace=wrap;html=1;align=center;" vertex="1" parent="1">
          <mxGeometry x="540" y="650" width="60" height="30" as="geometry" />
        </mxCell>
        <mxCell id="d-qR0EGC7ATznKxFdN1T-76" value="nota" style="ellipse;whiteSpace=wrap;html=1;align=center;" vertex="1" parent="1">
          <mxGeometry x="560" y="690" width="30" height="20" as="geometry" />
        </mxCell>
        <mxCell id="d-qR0EGC7ATznKxFdN1T-77" value="comentario" style="ellipse;whiteSpace=wrap;html=1;align=center;" vertex="1" parent="1">
          <mxGeometry x="430" y="725" width="63.59" height="20" as="geometry" />
        </mxCell>
        <mxCell id="d-qR0EGC7ATznKxFdN1T-78" value="data_avaliacao" style="ellipse;whiteSpace=wrap;html=1;align=center;" vertex="1" parent="1">
          <mxGeometry x="350" y="680" width="90" height="20" as="geometry" />
        </mxCell>
        <mxCell id="d-qR0EGC7ATznKxFdN1T-80" value="id" style="ellipse;whiteSpace=wrap;html=1;align=center;fontStyle=4;" vertex="1" parent="1">
          <mxGeometry x="540" y="730" width="20" height="20" as="geometry" />
        </mxCell>
      </root>
    </mxGraphModel>
  </diagram>
</mxfile>
